<svg xmlns="http://www.w3.org/2000/svg" xmlns:xlink="http://www.w3.org/1999/xlink">
  <defs>
    <symbol id="ak-i-sparkles" viewBox="0 0 24 24" fill="none">
      <path stroke="currentColor" stroke-width="1.5" stroke-linecap="round" stroke-linejoin="round" d="M9.813 15.904L9 18.75l-.813-2.846a4.5 4.5 0 00-3.09-3.09L2.25 12l2.846-.813a4.5 4.5 0 003.09-3.09L9 5.25l.813 2.846a4.5 4.5 0 003.09 3.09L15.75 12l-2.846.813a4.5 4.5 0 00-3.09 3.09zM18.259 8.715L18 9.75l-.259-1.035a3.375 3.375 0 00-2.455-2.456L14.25 6l1.036-.259a3.375 3.375 0 002.455-2.456L18 2.25l.259 1.035a3.375 3.375 0 002.456 2.456L21.75 6l-1.035.259a3.375 3.375 0 00-2.456 2.456zM16.894 20.567L16.5 21.75l-.394-1.183a2.25 2.25 0 00-1.423-1.423L13.5 18.75l1.183-.394a2.25 2.25 0 001.423-1.423l.394-1.183.394 1.183a2.25 2.25 0 001.423 1.423l1.183.394-1.183.394a2.25 2.25 0 00-1.423 1.423z"/>
    </symbol>
    <symbol id="ak-i-eye" viewBox="0 0 24 24" fill="none">
      <path stroke="currentColor" stroke-width="1.5" stroke-linecap="round" stroke-linejoin="round" d="M2.036 12.322a1.012 1.012 0 010-.639C3.423 7.51 7.36 4.5 12 4.5c4.638 0 8.573 3.007 9.963 7.178.07.207.07.431 0 .639C20.577 16.49 16.64 19.5 12 19.5c-4.638 0-8.573-3.007-9.963-7.178z"/>
      <path stroke="currentColor" stroke-width="1.5" stroke-linecap="round" stroke-linejoin="round" d="M15 12a3 3 0 1 1-6 0 3 3 0 0 1 6 0z"/>
    </symbol>
    <symbol id="ak-i-chat" viewBox="0 0 24 24" fill="none">
      <path stroke="currentColor" stroke-width="1.5" stroke-linecap="round" stroke-linejoin="round" d="M20.25 8.511c.884.284 1.5 1.128 1.5 2.097v4.286c0 1.136-.847 2.1-1.98 2.193-.34.027-.68.052-1.02.072v3.091l-3-3c-1.354 0-2.694-.055-4.02-.163a2.115 2.115 0 01-.825-.242m9.345-8.334a2.126 2.126 0 00-.476-.095 48.64 48.64 0 00-8.048 0c-1.131.094-1.976 1.057-1.976 2.192v4.286c0 .837.46 1.58 1.155 1.951m9.345-8.334V6.637c0-1.621-1.152-3.026-2.76-3.235A48.455 48.455 0 0011.25 3c-2.115 0-4.198.137-6.24.402-1.608.209-2.76 1.614-2.76 3.235v6.226c0 1.621 1.152 3.026 2.76 3.235.577.075 1.157.14 1.74.194V21l4.155-4.155"/>
    </symbol>
    <symbol id="ak-i-book" viewBox="0 0 24 24" fill="none">
      <path stroke="currentColor" stroke-width="1.5" stroke-linecap="round" stroke-linejoin="round" d="M12 6.253v13m0-13C10.832 5.477 9.246 5 7.5 5S4.168 5.477 3 6.253v13C4.168 18.477 5.754 18 7.5 18s3.332.477 4.5 1.253m0-13C13.168 5.477 14.754 5 16.5 5c1.747 0 3.332.477 4.5 1.253v13C19.832 18.477 18.247 18 16.5 18c-1.746 0-3.332.477-4.5 1.253"/>
    </symbol>
    <symbol id="ak-i-user-circle" viewBox="0 0 24 24" fill="none">
      <path stroke="currentColor" stroke-width="1.5" stroke-linecap="round" stroke-linejoin="round" d="M17.982 18.725A7.488 7.488 0 0012 15.75a7.488 7.488 0 00-5.982 2.975m11.963 0a9 9 0 1 0-11.963 0m11.963 0A8.966 8.966 0 0112 21a8.966 8.966 0 01-5.982-2.275M15 9.75a3 3 0 1 1-6 0 3 3 0 0 1 6 0z"/>
    </symbol>
    <symbol id="ak-i-user" viewBox="0 0 24 24" fill="none">
      <path stroke="currentColor" stroke-width="1.5" stroke-linecap="round" stroke-linejoin="round" d="M15.75 6a3.75 3.75 0 1 1-7.5 0 3.75 3.75 0 0 1 7.5 0zM4.501 20.118a7.5 7.5 0 0 1 14.998 0A17.933 17.933 0 0 1 12 21.75c-2.676 0-5.216-.584-7.499-1.632z"/>
    </symbol>
    <symbol id="ak-i-users" viewBox="0 0 24 24" fill="none">
      <path stroke="currentColor" stroke-width="1.5" stroke-linecap="round" stroke-linejoin="round" d="M18 18.72a9.094 9.094 0 003.741-.479 3 3 0 00-4.682-2.72m.94 3.198l.001.031c0 .225-.012.447-.037.666A11.944 11.944 0 0112 21c-2.17 0-4.207-.576-5.963-1.584A6.062 6.062 0 016 18.719m12 0a5.971 5.971 0 00-.941-3.197m0 0A5.995 5.995 0 0012 12.75a5.995 5.995 0 00-5.058 2.772m0 0a3 3 0 00-4.681 2.72 8.986 8.986 0 003.74.477m.94-3.197a5.971 5.971 0 00-.94 3.197M15 6.75a3 3 0 1 1-6 0 3 3 0 0 1 6 0zm6 3a2.25 2.25 0 1 1-4.5 0 2.25 2.25 0 0 1 4.5 0zm-13.5 0a2.25 2.25 0 1 1-4.5 0 2.25 2.25 0 0 1 4.5 0z"/>
    </symbol>
    <symbol id="ak-i-light-bulb" viewBox="0 0 24 24" fill="none">
      <path stroke="currentColor" stroke-width="1.5" stroke-linecap="round" stroke-linejoin="round" d="M12 18v-5.25m0 0a6.01 6.01 0 001.5-.189m-1.5.189a6.01 6.01 0 01-1.5-.189m3.75 7.478a12.06 12.06 0 01-4.5 0m3.75 2.383a14.406 14.406 0 01-3 0M14.25 18v-.192c0-.983.658-1.823 1.508-2.316a7.5 7.5 0 1 0-7.517 0c.85.493 1.509 1.333 1.509 2.316V18"/>
    </symbol>
    <symbol id="ak-i-megaphone" viewBox="0 0 24 24" fill="none">
      <path stroke="currentColor" stroke-width="1.5" stroke-linecap="round" stroke-linejoin="round" d="M10.34 15.84c-.688-.06-1.386-.09-2.09-.09H7.5a4.5 4.5 0 010-9h.75c.704 0 1.402-.03 2.09-.09m0 9.18c.253.962.584 1.892.985 2.783.247.55.06 1.21-.463 1.511l-.657.38c-.551.318-1.26.117-1.527-.461a20.845 20.845 0 01-1.44-4.282m3.102.069a18.03 18.03 0 01-.59-4.59c0-1.586.205-3.124.59-4.59m0 9.18a23.848 23.848 0 018.835 2.535M10.34 6.66a23.847 23.847 0 008.835-2.535m0 0A23.74 23.74 0 0018.795 3m.38 1.125a23.91 23.91 0 011.014 5.395m-1.014 8.855c-.118.38-.245.754-.38 1.125m.38-1.125a23.91 23.91 0 001.014-5.395m0-3.46c.495.413.811 1.035.811 1.73 0 .695-.316 1.317-.811 1.73m0-3.46a24.347 24.347 0 010 3.46"/>
    </symbol>
    <symbol id="ak-i-currency" viewBox="0 0 24 24" fill="none">
      <path stroke="currentColor" stroke-width="1.5" stroke-linecap="round" stroke-linejoin="round" d="M12 6v12m-3-2.818.879.659c1.171.879 3.07.879 4.242 0 1.172-.879 1.172-2.303 0-3.182C13.536 12.219 12.768 12 12 12c-.725 0-1.45-.22-2.003-.659-1.106-.879-1.106-2.303 0-3.182s2.9-.879 4.006 0l.415.33M21 12a9 9 0 11-18 0 9 9 0 0118 0z"/>
    </symbol>
    <symbol id="ak-i-cpu" viewBox="0 0 24 24" fill="none">
      <path stroke="currentColor" stroke-width="1.5" stroke-linecap="round" stroke-linejoin="round" d="M8.25 3v1.5M4.5 8.25H3m18 0h-1.5M4.5 12H3m18 0h-1.5m-15 3.75H3m18 0h-1.5M8.25 19.5V21M12 3v1.5m0 15V21m3.75-18v1.5m0 15V21m-9-1.5h10.5a2.25 2.25 0 002.25-2.25V6.75a2.25 2.25 0 00-2.25-2.25H6.75A2.25 2.25 0 004.5 6.75v10.5a2.25 2.25 0 002.25 2.25zm.75-12h9v9h-9v-9z"/>
    </symbol>
    <symbol id="ak-i-link" viewBox="0 0 24 24" fill="none">
      <path stroke="currentColor" stroke-width="1.5" stroke-linecap="round" stroke-linejoin="round" d="M13.19 8.688a4.5 4.5 0 0 1 1.242 7.244l-4.5 4.5a4.5 4.5 0 0 1-6.364-6.364l1.757-1.757m13.35-.622 1.757-1.757a4.5 4.5 0 0 0-6.364-6.364l-4.5 4.5a4.5 4.5 0 0 0 1.242 7.244"/>
    </symbol>
    <symbol id="ak-i-bolt" viewBox="0 0 24 24" fill="none">
      <path stroke="currentColor" stroke-width="1.5" stroke-linecap="round" stroke-linejoin="round" d="M3.75 13.5l10.5-11.25L12 10.5h8.25L9.75 21.75 12 13.5H3.75z"/>
    </symbol>
    <symbol id="ak-i-chart-bar" viewBox="0 0 24 24" fill="none">
      <path stroke="currentColor" stroke-width="1.5" stroke-linecap="round" stroke-linejoin="round" d="M3 13.125C3 12.504 3.504 12 4.125 12h2.25c.621 0 1.125.504 1.125 1.125v6.75C7.5 20.496 6.996 21 6.375 21h-2.25A1.125 1.125 0 013 19.875v-6.75zM9.75 8.625c0-.621.504-1.125 1.125-1.125h2.25c.621 0 1.125.504 1.125 1.125v11.25c0 .621-.504 1.125-1.125 1.125h-2.25a1.125 1.125 0 01-1.125-1.125V8.625zM16.5 4.125c0-.621.504-1.125 1.125-1.125h2.25C20.496 3 21 3.504 21 4.125v15.75c0 .621-.504 1.125-1.125 1.125h-2.25a1.125 1.125 0 01-1.125-1.125V4.125z"/>
    </symbol>
    <symbol id="ak-i-heart" viewBox="0 0 24 24" fill="none">
      <path stroke="currentColor" stroke-width="1.5" stroke-linecap="round" stroke-linejoin="round" d="M21 8.25c0-2.485-2.099-4.5-4.688-4.5-1.935 0-3.597 1.126-4.312 2.733-.715-1.607-2.377-2.733-4.313-2.733C5.1 3.75 3 5.765 3 8.25c0 7.22 9 12 9 12s9-4.78 9-12z"/>
    </symbol>
    <symbol id="ak-i-globe" viewBox="0 0 24 24" fill="none">
      <path stroke="currentColor" stroke-width="1.5" stroke-linecap="round" stroke-linejoin="round" d="M12 21a9.004 9.004 0 008.716-6.747M12 21a9.004 9.004 0 01-8.716-6.747M12 21c2.485 0 4.5-4.03 4.5-9S14.485 3 12 3m0 18c-2.485 0-4.5-4.03-4.5-9S9.515 3 12 3m0 0a8.997 8.997 0 017.843 4.582M12 3a8.997 8.997 0 00-7.843 4.582m15.686 0A11.953 11.953 0 0112 10.5c-2.998 0-5.74-1.1-7.843-2.918m15.686 0A8.959 8.959 0 0121 12c0 .778-.099 1.533-.284 2.253m0 0A17.919 17.919 0 0112 16.5c-3.162 0-6.133-.815-8.716-2.247m0 0A9.015 9.015 0 013 12c0-1.605.42-3.113 1.157-4.418"/>
    </symbol>
    <symbol id="ak-i-calendar" viewBox="0 0 24 24" fill="none">
      <path stroke="currentColor" stroke-width="1.5" stroke-linecap="round" stroke-linejoin="round" d="M6.75 3v2.25M17.25 3v2.25M3 18.75V7.5a2.25 2.25 0 012.25-2.25h13.5A2.25 2.25 0 0121 7.5v11.25m-18 0A2.25 2.25 0 005.25 21h13.5a2.25 2.25 0 002.25-2.25m-18 0v-7.5A2.25 2.25 0 015.25 9h13.5a2.25 2.25 0 012.25 2.25v7.5"/>
    </symbol>
    <symbol id="ak-i-beaker" viewBox="0 0 24 24" fill="none">
      <path stroke="currentColor" stroke-width="1.5" stroke-linecap="round" stroke-linejoin="round" d="M9.75 3.104v5.714a2.25 2.25 0 0 1-.659 1.591L5 14.5M9.75 3.104c-.251.023-.501.05-.75.082m.75-.082a24.301 24.301 0 0 1 4.5 0m0 0v5.714c0 .597.237 1.17.659 1.591L19.8 15.3M14.25 3.104c.251.023.501.05.75.082M19.8 15.3l-1.57.393A9.065 9.065 0 0 1 12 15a9.065 9.065 0 0 0-6.23-.693L5 14.5m14.8.8 1.402 1.402c1.232 1.232.65 3.318-1.067 3.611A48.309 48.309 0 0 1 12 21c-2.773 0-5.491-.235-8.135-.687-1.718-.293-2.3-2.379-1.067-3.61L5 14.5"/>
    </symbol>
    <symbol id="ak-i-cube" viewBox="0 0 24 24" fill="none">
      <path stroke="currentColor" stroke-width="1.5" stroke-linecap="round" stroke-linejoin="round" d="M21 7.5l-9-5.25L3 7.5m18 0l-9 5.25m9-5.25v9l-9 5.25M3 7.5l9 5.25M3 7.5v9l9 5.25m0-9v9"/>
    </symbol>
    <symbol id="ak-i-phone" viewBox="0 0 24 24" fill="none">
      <path stroke="currentColor" stroke-width="1.5" stroke-linecap="round" stroke-linejoin="round" d="M10.5 1.5H8.25A2.25 2.25 0 006 3.75v16.5a2.25 2.25 0 002.25 2.25h7.5A2.25 2.25 0 0018 20.25V3.75a2.25 2.25 0 00-2.25-2.25H13.5m-3 0V3h3V1.5m-3 0h3m-3 18.75h3"/>
    </symbol>
    <symbol id="ak-i-cloud" viewBox="0 0 24 24" fill="none">
      <path stroke="currentColor" stroke-width="1.5" stroke-linecap="round" stroke-linejoin="round" d="M2.25 15a4.5 4.5 0 004.5 4.5h7.046a4.5 4.5 0 001.037-8.855 5.25 5.25 0 00-10.077-2.08A4.5 4.5 0 002.25 15z"/>
    </symbol>
    <symbol id="ak-i-arrow-right" viewBox="0 0 24 24" fill="none">
      <path stroke="currentColor" stroke-width="1.5" stroke-linecap="round" stroke-linejoin="round" d="M13.5 4.5L21 12m0 0l-7.5 7.5M21 12H3"/>
    </symbol>
    <symbol id="ak-i-sun" viewBox="0 0 24 24" fill="none">
      <path stroke="currentColor" stroke-width="1.5" stroke-linecap="round" stroke-linejoin="round" d="M12 3v2.25m6.364.386l-1.591 1.591M21 12h-2.25m-.386 6.364l-1.591-1.591M12 18.75V21m-4.773-4.227l-1.591 1.591M5.25 12H3m4.227-4.773L5.25 5.25M12 12h.008v.008H12V12z"/>
    </symbol>
    <symbol id="ak-i-map-pin" viewBox="0 0 24 24" fill="none">
      <path stroke="currentColor" stroke-width="1.5" stroke-linecap="round" stroke-linejoin="round" d="M15 10.5a3 3 0 11-6 0 3 3 0 016 0z"/>
      <path stroke="currentColor" stroke-width="1.5" stroke-linecap="round" stroke-linejoin="round" d="M19.5 10.5c0 7.142-7.5 11.25-7.5 11.25S4.5 17.642 4.5 10.5a7.5 7.5 0 1115 0z"/>
    </symbol>
    <symbol id="ak-i-moon" viewBox="0 0 24 24" fill="none">
      <path stroke="currentColor" stroke-width="1.5" stroke-linecap="round" stroke-linejoin="round" d="M21.752 15.002A9.718 9.718 0 0118 15.75c-5.385 0-9.75-4.365-9.75-9.75 0-1.33.266-2.597.748-3.752A9.753 9.753 0 003 11.25C3 16.635 7.365 21 12.75 21a9.753 9.753 0 009.002-5.998z"/>
    </symbol>
    <symbol id="ak-i-squares" viewBox="0 0 24 24" fill="none">
      <path stroke="currentColor" stroke-width="1.5" stroke-linecap="round" stroke-linejoin="round" d="M3.75 6A2.25 2.25 0 016 3.75h2.25A2.25 2.25 0 0110.5 6v2.25a2.25 2.25 0 01-2.25 2.25H6a2.25 2.25 0 01-2.25-2.25V6zM13.5 15.75A2.25 2.25 0 0115.75 18H18a2.25 2.25 0 012.25 2.25V18A2.25 2.25 0 0118 15.75h-2.25zM13.5 3.75A2.25 2.25 0 0115.75 6H18a2.25 2.25 0 012.25 2.25V6A2.25 2.25 0 0118 3.75h-2.25zM6 13.5A2.25 2.25 0 013.75 15.75V18A2.25 2.25 0 006 20.25h2.25A2.25 2.25 0 0110.5 18v-2.25A2.25 2.25 0 018.25 13.5H6z"/>
    </symbol>
    <symbol id="ak-i-arrows-out" viewBox="0 0 24 24" fill="none">
      <path stroke="currentColor" stroke-width="1.5" stroke-linecap="round" stroke-linejoin="round" d="M3.75 3.75v4.5m0-4.5h4.5m-4.5 0L9 9M3.75 20.25v-4.5m0 4.5h4.5m-4.5 0L9 15M20.25 3.75h-4.5m4.5 0v4.5m0-4.5L15 9m5.25 11.25h-4.5m4.5 0v-4.5m0 4.5L15 15"/>
    </symbol>
    <symbol id="ak-i-scale" viewBox="0 0 24 24" fill="none">
      <path stroke="currentColor" stroke-width="1.5" stroke-linecap="round" stroke-linejoin="round" d="M12 3v17.25m0 0c-1.472 0-2.882.265-4.185.75M12 20.25c1.472 0 2.882.265 4.185.75M18.75 4.97A48.416 48.416 0 0012 4.5c-2.291 0-4.545.16-6.75.47m13.5 0c1.01.143 2.01.317 3 .52m-3-.52l2.62 10.726c.122.499-.106 1.028-.589 1.202a5.988 5.988 0 01-2.031.352 5.988 5.988 0 01-2.031-.352c-.483-.174-.711-.703-.59-1.202L18.75 4.971zm-16.5.52c.99-.203 1.99-.377 3-.52m0 0l2.62 10.726c.122.499-.106 1.028-.589 1.202a5.989 5.989 0 01-5.42 0c-.483-.174-.711-.703-.59-1.202L5.25 4.971z"/>
    </symbol>
    <symbol id="ak-i-speaker" viewBox="0 0 24 24" fill="none">
      <path stroke="currentColor" stroke-width="1.5" stroke-linecap="round" stroke-linejoin="round" d="M19.114 5.636a9 9 0 010 12.728M16.463 8.288a5.25 5.25 0 010 7.424M6.75 8.25l4.72-4.72a.75.75 0 011.28.53v15.88a.75.75 0 01-1.28.53l-4.72-4.72H4.51c-.88 0-1.704-.507-1.938-1.354A9.01 9.01 0 012.25 12c0-.83.112-1.633.322-2.396C2.806 8.756 3.63 8.25 4.51 8.25H6.75z"/>
    </symbol>
    <symbol id="ak-i-camera" viewBox="0 0 24 24" fill="none">
      <path stroke="currentColor" stroke-width="1.5" stroke-linecap="round" stroke-linejoin="round" d="M6.827 6.175A2.31 2.31 0 015.186 7.23c-.38.054-.757.112-1.134.175C2.999 7.58 2.25 8.507 2.25 9.574V18a2.25 2.25 0 002.25 2.25h15A2.25 2.25 0 0021.75 18V9.574c0-1.067-.75-1.994-1.802-2.169a47.865 47.865 0 00-1.134-.175 2.31 2.31 0 01-1.64-1.055l-.822-1.316a2.192 2.192 0 00-1.736-1.039 48.774 48.774 0 00-5.232 0 2.192 2.192 0 00-1.736 1.039l-.821 1.316Z"/>
      <path stroke="currentColor" stroke-width="1.5" stroke-linecap="round" stroke-linejoin="round" d="M16.5 12.75a4.5 4.5 0 11-9 0 4.5 4.5 0 019 0zM18.75 10.5h.008v.008h-.008V10.5z"/>
    </symbol>
    <symbol id="ak-i-battery" viewBox="0 0 24 24" fill="none">
      <path stroke="currentColor" stroke-width="1.5" stroke-linecap="round" stroke-linejoin="round" d="M21 10.5h.375c.621 0 1.125.504 1.125 1.125v2.25c0 .621-.504 1.125-1.125 1.125H21M3.75 18h15a2.25 2.25 0 002.25-2.25V6.75A2.25 2.25 0 0018.75 4.5h-15A2.25 2.25 0 001.5 6.75v8.25A2.25 2.25 0 003.75 18z"/>
    </symbol>
    <symbol id="ak-i-photo" viewBox="0 0 24 24" fill="none">
      <path stroke="currentColor" stroke-width="1.5" stroke-linecap="round" stroke-linejoin="round" d="M2.25 15.75l5.159-5.159a2.25 2.25 0 0 1 3.182 0l5.159 5.159m-1.5-1.5l1.409-1.409a2.25 2.25 0 0 1 3.182 0l2.909 2.909m-18 3.75h16.5a1.5 1.5 0 0 0 1.5-1.5V6a1.5 1.5 0 0 0-1.5-1.5H3.75A1.5 1.5 0 0 0 2.25 6v12a1.5 1.5 0 0 0 1.5 1.5zm10.5-11.25h.008v.008h-.008V8.25zm.375 0a.375.375 0 1 1-.75 0 .375.375 0 0 1 .75 0z"/>
    </symbol>
    <symbol id="ak-i-play-solid" viewBox="0 0 24 24">
      <path fill="currentColor" d="M8 5.25v13.5L18.77 12 8 5.25Z"/>
    </symbol>
  </defs>
</svg>
